<?xml version="1.0" encoding="UTF-8" standalone="no"?>
<!-- Created with Inkscape (http://www.inkscape.org/) -->

<svg
   width="76.166542mm"
   height="61.339569mm"
   viewBox="0 0 76.166542 61.339569"
   version="1.1"
   id="svg1"
   xml:space="preserve"
   xmlns="http://www.w3.org/2000/svg"
   xmlns:svg="http://www.w3.org/2000/svg"><defs
     id="defs1" /><g
     id="layer1"
     transform="translate(-157.53613,-400.95594)"><g
       id="g1"
       style="fill:#5b65cd;fill-opacity:1"><path
         style="fill:#5b65cd;fill-opacity:1;stroke-width:0.438495"
         d="m 178.3597,440.94899 c -3.0222,-3.14184 -4.92551,-6.65811 -5.95713,-11.00551 -0.77404,-3.26192 -0.77655,-7.37164 -0.006,-10.61668 1.06531,-4.48927 2.9702,-7.95227 6.2048,-11.28003 4.46579,-4.59444 10.44275,-7.09912 16.92081,-7.0908 2.78201,0.004 4.86245,0.34236 7.48974,1.21967 3.64245,1.21631 6.6848,3.12557 9.36386,5.87644 1.71106,1.75691 3.4534,4.06442 3.22155,4.26654 -0.0533,0.0465 -1.81976,1.50996 -3.92549,3.25222 -2.10574,1.74226 -3.91657,3.24339 -4.02406,3.33585 -0.17706,0.1523 -0.22496,0.10977 -0.50914,-0.4521 -0.51455,-1.01732 -1.19648,-1.94606 -2.18467,-2.97539 -5.22016,-5.43743 -13.86068,-5.37373 -19.07532,0.14063 -3.68608,3.89794 -4.62618,9.73578 -2.34194,14.54314 0.75205,1.58277 1.45978,2.56561 2.80385,3.89377 0.69907,0.69079 1.25492,1.32433 1.23522,1.40786 -0.0383,0.1626 -7.82084,6.67564 -7.97678,6.67564 -0.0511,0 -0.60856,-0.53606 -1.2388,-1.19125 z"
         id="path30" /><path
         style="fill:#5b65cd;fill-opacity:1;stroke-width:0.438495"
         d="m 157.53678,462.17908 c 0.0561,-0.0907 42.86179,-35.81941 49.48319,-41.30217 1.52712,-1.26451 5.04504,-4.1968 8.35178,-6.96144 1.05287,-0.88026 2.58068,-2.15394 3.39514,-2.8304 l 1.48083,-1.22992 h 8.00368 5.45127 v 26.22018 26.22019 h -3.42254 -5.97496 v -21.17338 c 0,-11.64536 -0.25953,-22.10153 -0.29316,-22.10153 -0.0336,0 -1.4302,1.13754 -3.1035,2.52788 -1.6733,1.39033 -4.89538,4.06601 -7.16018,5.94595 -6.81304,5.65529 -10.41857,8.65191 -12.00876,9.98067 -1.46197,1.22163 -2.47775,2.06576 -11.36981,9.44841 -6.01308,4.99238 -11.01844,9.15145 -14.4158,11.97845 l -4.12298,3.39355 h -6.48697 c -5.24238,0 -7.85511,-0.039 -7.80723,-0.11644 z"
         id="path31" /></g></g></svg>
