<?xml version="1.0" encoding="UTF-8" standalone="no"?>
<!-- Created with Inkscape (http://www.inkscape.org/) -->

<svg
   width="174.43208mm"
   height="47.200283mm"
   viewBox="0 0 174.43208 47.200283"
   version="1.1"
   id="svg1"
   xml:space="preserve"
   xmlns="http://www.w3.org/2000/svg"
   xmlns:svg="http://www.w3.org/2000/svg"><defs
     id="defs1" /><g
     id="layer1"
     transform="translate(249.43209,-330.42826)"><g
       id="g5"><path
         style="fill:#5b65cd;fill-opacity:1;stroke-width:0.445984"
         d="m -124.39021,377.42051 c -0.16978,-0.18761 -0.19529,-0.56967 -0.19529,-2.92542 0,-2.70962 0,-2.70962 0.61951,-3.02223 0.34072,-0.17194 0.83503,-0.44547 1.09848,-0.60785 0.47899,-0.29523 0.47899,-0.29523 1.53399,0.21021 1.18431,0.56738 1.46201,0.81045 1.27212,1.11348 -0.20838,0.33252 -0.53591,0.28587 -1.84581,-0.26294 -1.26229,-0.52885 -1.26229,-0.52885 -1.26229,2.35485 0,2.72635 -0.0129,2.89657 -0.236,3.11968 -0.2945,0.29451 -0.72842,0.30342 -0.98471,0.0202 z m -3.38949,-5.1631 c -0.26948,-0.3247 0.007,-0.54535 1.84224,-1.4651 1.84284,-0.92404 2.67683,-1.43676 3.3388,-2.0526 0.43737,-0.40689 0.84515,-1.11792 0.84515,-1.47364 0,-0.31571 -0.50744,-0.89492 -0.94161,-1.07476 -0.19601,-0.0812 -0.35638,-0.18118 -0.35638,-0.22219 0,-0.0411 0.35144,-0.19724 0.78097,-0.34714 0.78096,-0.27256 0.78096,-0.27256 1.07347,3.9e-4 0.69603,0.64947 0.91894,1.6486 0.55964,2.5085 -0.36953,0.88443 -1.77434,2.10641 -3.30075,2.87118 -1.14245,0.5724 -3.23538,1.44225 -3.47015,1.44225 -0.11895,0 -0.28606,-0.0841 -0.37138,-0.18689 z m 1.60325,-2.78177 c -1.15013,-1.05114 -1.51153,-2.17452 -1.01358,-3.15057 0.47185,-0.92491 1.67383,-1.69829 3.66653,-2.35912 1.05797,-0.35083 1.51785,-0.65818 1.72435,-1.15237 0.15637,-0.37425 0.15625,-0.45196 -9e-4,-0.69208 -0.0975,-0.14875 -0.3747,-0.39252 -0.61607,-0.5417 -0.3848,-0.23782 -0.41098,-0.28137 -0.21252,-0.35369 0.12447,-0.0454 0.59754,-0.2217 1.05125,-0.39187 0.82492,-0.30941 0.82492,-0.30941 1.04009,-0.0432 1.02569,1.2691 0.57085,3.19014 -0.95001,4.01255 -0.30856,0.16684 -1.17166,0.50089 -1.918,0.7423 -1.63149,0.5277 -2.14013,0.77267 -2.46685,1.18801 -0.30665,0.38984 -0.31038,0.63983 -0.0181,1.21274 0.22771,0.44632 0.9734,1.19364 1.19106,1.19364 0.0667,0 0.11387,-0.57701 0.11387,-1.39445 0,-1.39446 0,-1.39446 0.62987,-1.593 0.34643,-0.10915 0.66503,-0.19855 0.708,-0.19855 0.0429,0 0.0782,0.62968 0.0782,1.39928 0,1.3993 0,1.3993 -0.62558,1.81465 -0.58825,0.39058 -1.54118,0.91606 -1.66121,0.91606 -0.0298,0 -0.35389,-0.2739 -0.72018,-0.60867 z m -0.83774,-5.13188 c -0.80755,-0.80755 -1.09592,-1.999 -0.70834,-2.9266 0.40884,-0.97849 1.76505,-1.85447 3.66804,-2.3692 2.89865,-0.78405 3.90355,-1.99494 2.74789,-3.31117 -0.29802,-0.33944 -1.54818,-1.11044 -1.80053,-1.11044 -0.0342,0 -0.0624,0.84755 -0.0624,1.88344 0,1.88346 0,1.88346 -0.5015,2.01303 -0.27583,0.0712 -0.5918,0.1557 -0.70217,0.18764 -0.18179,0.0526 -0.20399,-0.11573 -0.236,-1.78886 -0.0295,-1.54637 -0.006,-1.86222 0.14168,-1.94076 0.0974,-0.0516 0.70799,-0.29222 1.35699,-0.53474 0.649,-0.24253 1.49472,-0.59324 1.8794,-0.77936 0.38468,-0.18612 0.79206,-0.33839 0.9053,-0.33839 0.29123,0 1.01749,0.87619 1.41824,1.711 0.46908,0.97718 0.48324,2.2033 0.0359,3.1012 -0.66202,1.32848 -2.21633,2.27426 -4.58152,2.78777 -1.47111,0.31941 -2.29194,0.69328 -2.61944,1.19309 -0.1729,0.2639 -0.17055,0.32075 0.0304,0.73202 0.22435,0.45922 1.1035,1.06334 1.33723,0.91888 0.0661,-0.0409 0.11958,-0.53889 0.11958,-1.11494 0,-1.04102 0,-1.04102 0.52426,-1.17303 0.91614,-0.23068 0.89174,-0.25561 0.89174,0.91082 0,1.04284 0,1.04284 -0.6785,1.25709 -0.37317,0.11784 -1.10935,0.41853 -1.63595,0.66818 -0.52661,0.24964 -0.98947,0.4539 -1.02857,0.4539 -0.0391,0 -0.26486,-0.19376 -0.50167,-0.43057 z m -0.71433,-4.74385 c -2.07796,-1.50528 -2.16751,-4.10511 -0.2058,-5.97504 0.73657,-0.70211 1.55843,-1.17146 3.50704,-2.00283 2.89694,-1.23595 3.72466,-2.01191 3.49459,-3.276 -0.0987,-0.54255 -0.60211,-1.22022 -1.1437,-1.53976 -0.52819,-0.31164 -0.42757,-0.36016 1.26689,-0.61092 0.74634,-0.11052 1.55587,-0.23032 1.79894,-0.26636 0.44136,-0.0655 0.44238,-0.0646 0.767,0.6284 0.29297,0.62549 0.32505,0.82205 0.32505,1.99197 0,1.19318 -0.0275,1.35423 -0.34197,1.99447 -0.7538,1.5352 -2.17526,2.48961 -5.55801,3.7318 -1.85375,0.68071 -2.2472,0.89087 -2.75893,1.47371 -0.87822,1.00024 -0.48928,1.92831 1.16022,2.76849 0.52529,0.26757 0.52529,0.26757 -0.20944,0.60108 -0.4041,0.18345 -0.88763,0.4424 -1.07451,0.57548 -0.43583,0.31033 -0.47326,0.30689 -1.02737,-0.0945 z m -0.54706,-7.40246 c -0.62832,-0.48951 -1.29386,-1.41104 -1.56946,-2.17309 -0.29136,-0.80559 -0.25842,-2.25379 0.0711,-3.127 0.68347,-1.81096 2.21065,-3.1486 4.1687,-3.65126 0.3802,-0.0976 1.73424,-0.31411 3.00899,-0.48111 3.70639,-0.48558 5.04318,-0.80132 6.05408,-1.42992 1.07032,-0.66555 1.08789,-1.52718 0.0394,-1.9333 -0.19458,-0.0754 -1.07063,-0.14954 -1.94679,-0.1648 -1.76872,-0.0308 -2.41165,-0.16472 -2.94462,-0.61318 -0.46451,-0.39086 -0.45285,-0.60171 0.0669,-1.20888 0.48286,-0.56412 1.26142,-0.9986 2.25157,-1.25651 1.86092,-0.4847 4.25621,0.2021 5.46498,1.56698 1.29597,1.46336 1.01908,4.12286 -0.58368,5.60627 -1.57056,1.45361 -3.073,1.94155 -8.42981,2.73777 -2.8698,0.42656 -3.26986,0.57044 -3.90638,1.40496 -0.65587,0.85987 -0.59874,1.79086 0.15333,2.49911 0.5025,0.47325 1.6108,1.13649 1.71873,1.02857 0.0402,-0.0402 0.0731,-1.01304 0.0731,-2.16193 0,-2.08888 0,-2.08888 0.44249,-2.16202 1.06116,-0.17541 0.98322,-0.33642 0.94679,1.95588 -0.0323,2.03162 -0.0323,2.03162 -1.81142,2.81103 -0.97851,0.42869 -1.9063,0.8685 -2.06175,0.97738 -0.40702,0.28507 -0.59704,0.24963 -1.2062,-0.22495 z m -2.4459,-7.20021 c -2.69534,-0.91705 -4.17438,-2.44929 -4.33856,-4.49465 -0.0815,-1.01507 0.21837,-2.10933 0.74737,-2.72733 1.84837,-2.15942 5.99339,-2.37073 7.73317,-0.39424 0.25301,0.28742 0.46001,0.6166 0.46001,0.73149 0,0.27778 -0.60835,0.77739 -1.15416,0.94788 -0.24137,0.0754 -1.18298,0.15112 -2.09247,0.1683 -2.16401,0.0409 -2.76514,0.26124 -2.76956,1.01528 -0.006,1.01318 1.68623,1.7694 5.13119,2.2931 0.71391,0.10853 1.31254,0.21043 1.33032,0.22647 0.0179,0.016 -0.30082,0.15025 -0.70799,0.29826 -0.95316,0.34648 -1.77212,0.88203 -2.50589,1.63872 -0.32207,0.33212 -0.66721,0.60249 -0.767,0.60083 -0.0997,-0.001 -0.57968,-0.13852 -1.06643,-0.30411 z m 6.13598,-2.06504 c 0,-7.08867 0,-7.08867 -0.44249,-7.31672 -0.99597,-0.5133 -1.56351,-1.43917 -1.56351,-2.55064 0,-2.32947 2.87925,-3.51866 4.52782,-1.8701 1.07863,1.07865 1.05189,2.84888 -0.0589,3.89926 -0.21886,0.20694 -0.54394,0.43131 -0.72241,0.49859 -0.3245,0.1223 -0.3245,0.1223 -0.3245,7.13924 0,3.85932 0.008,1.01764 -0.0411,1.04649 -0.0486,0.0289 -0.24061,-0.0208 -0.58133,0.0252 -0.61951,0.0836 -0.79367,6.21736 -0.79367,-0.87132 z"
         id="path20" /><g
         id="g3"><g
           id="g2"><path
             d="m -228.61831,344.77427 c 0.42353,-0.96808 1.08909,-1.39162 2.05717,-1.39162 0.96808,0 1.63364,0.42354 1.99667,1.39162 l 12.40354,32.85427 h 7.92617 l -13.79516,-36.30306 c -1.45212,-3.81182 -4.23536,-5.26394 -8.47072,-5.26394 -4.29586,0 -7.07909,1.45212 -8.59172,5.26394 l -14.33971,36.30306 h 7.86566 z"
             id="text40"
             style="-inkscape-font-specification:'Nasalization, @wght=700';fill:#5b65cd;stroke-width:13.1837;stroke-linecap:round;stroke-miterlimit:2.9"
             aria-label="A" /><path
             d="m -204.67443,336.7876 v 7.1396 h 11.91951 v 33.70134 h 7.2001 V 343.9272 h 11.91951 v -7.1396 z"
             id="text39"
             style="-inkscape-font-specification:'Nasalization, @wght=700';fill:#5b65cd;stroke-width:13.1837;stroke-linecap:round;stroke-miterlimit:2.9"
             aria-label="T" /><path
             d="m -166.45141,336.7876 v 26.74325 c 0,8.16819 4.23536,14.09769 15.06577,14.09769 h 16.27588 v -7.1396 h -15.85234 c -6.41354,0 -8.3497,-3.08576 -8.3497,-7.01859 V 336.7876 Z"
             id="text38"
             style="-inkscape-font-specification:'Nasalization, @wght=700';fill:#5b65cd;stroke-width:13.1837;stroke-linecap:round;stroke-miterlimit:2.9"
             aria-label="L" /><path
             d="m -98.778497,336.7876 c -9.075763,0 -12.706073,4.96142 -12.706073,11.73799 0,5.68748 2.54122,11.79849 13.432135,11.79849 h 9.4993 c 5.021924,0 6.413541,2.42021 6.413541,5.08243 0,2.96475 -1.754648,5.08243 -5.626974,5.08243 h -22.991942 v 7.1396 h 22.749921 c 9.317786,0 13.008597,-5.08243 13.008597,-11.98001 0,-5.86899 -2.60172,-12.04051 -13.734658,-12.04051 h -9.559806 c -4.779904,0 -6.050514,-2.3597 -6.050514,-4.84041 0,-2.84374 1.63364,-4.84041 5.324453,-4.84041 h 20.934765 v -7.1396 z"
             id="text36"
             style="-inkscape-font-specification:'Nasalization, @wght=700';fill:#5b65cd;stroke-width:13.1837;stroke-linecap:round;stroke-miterlimit:2.9"
             aria-label="S" /></g></g></g></g></svg>
