<?xml version="1.0" encoding="UTF-8" standalone="no"?>
<!-- Created with Inkscape (http://www.inkscape.org/) -->

<svg
   width="29.253048mm"
   height="29.384632mm"
   viewBox="0 0 29.253048 29.384632"
   version="1.1"
   id="svg1"
   xml:space="preserve"
   inkscape:version="1.4 (86a8ad7, 2024-10-11)"
   sodipodi:docname="nova-logo.svg"
   inkscape:export-filename="nova-logo.png"
   inkscape:export-xdpi="120.95238"
   inkscape:export-ydpi="120.95238"
   xmlns:inkscape="http://www.inkscape.org/namespaces/inkscape"
   xmlns:sodipodi="http://sodipodi.sourceforge.net/DTD/sodipodi-0.dtd"
   xmlns="http://www.w3.org/2000/svg"
   xmlns:svg="http://www.w3.org/2000/svg"><sodipodi:namedview
     id="namedview1"
     pagecolor="#ffffff"
     bordercolor="#000000"
     borderopacity="0.25"
     inkscape:showpageshadow="2"
     inkscape:pageopacity="0.0"
     inkscape:pagecheckerboard="0"
     inkscape:deskcolor="#d1d1d1"
     inkscape:document-units="mm"
     inkscape:zoom="1"
     inkscape:cx="388.99999"
     inkscape:cy="544.49999"
     inkscape:window-width="1920"
     inkscape:window-height="1046"
     inkscape:window-x="-11"
     inkscape:window-y="-11"
     inkscape:window-maximized="1"
     showgrid="false"
     inkscape:current-layer="layer1"><inkscape:grid
       id="grid167"
       units="mm"
       originx="-54.832067"
       originy="-125.3761"
       spacingx="0.99999998"
       spacingy="1"
       empcolor="#0099e5"
       empopacity="0.30196078"
       color="#0099e5"
       opacity="0.14901961"
       empspacing="5"
       enabled="true"
       visible="false" /><inkscape:page
       x="0"
       y="0"
       width="29.253048"
       height="29.384632"
       id="page2"
       margin="0"
       bleed="0" /></sodipodi:namedview><defs
     id="defs1" /><g
     inkscape:label="Layer 1"
     inkscape:groupmode="layer"
     id="layer1"
     transform="translate(-54.832064,-125.37611)"><g
       id="g1"
       inkscape:export-filename="crest.png"
       inkscape:export-xdpi="120.95238"
       inkscape:export-ydpi="120.95238"
       transform="translate(2.1166667,-0.52916667)"><g
         id="g37"
         style="stroke:#242775;stroke-opacity:1"
         transform="translate(-14.544295,-40.920377)"><path
           style="fill:#242775;fill-opacity:1;stroke:#242775;stroke-width:1.605;stroke-linecap:square;stroke-miterlimit:2.9;stroke-dasharray:none;stroke-opacity:1"
           d="m 68.062193,176.45146 c 8.79991,0 8.79991,0 8.79991,0"
           id="path26" /><path
           style="fill:#242775;fill-opacity:1;stroke:#242775;stroke-width:1.605;stroke-linecap:square;stroke-miterlimit:2.9;stroke-dasharray:none;stroke-opacity:1"
           d="m 76.862103,167.65154 c 0,8.79992 0,8.79992 0,8.79992"
           id="path27" /><path
           style="fill:#242775;fill-opacity:1;stroke:#242775;stroke-width:1.605;stroke-linecap:square;stroke-miterlimit:2.9;stroke-dasharray:none;stroke-opacity:1"
           d="m 82.533793,167.62815 h -5.67169"
           id="path28"
           sodipodi:nodetypes="cc" /><path
           style="fill:#242775;fill-opacity:1;stroke:#242775;stroke-width:1.605;stroke-linecap:square;stroke-miterlimit:2.9;stroke-dasharray:none;stroke-opacity:1"
           d="m 68.062193,176.45146 c 0,8.79992 0,8.79992 0,8.79992"
           id="path29" /><path
           style="fill:#242775;fill-opacity:1;stroke:#242775;stroke-width:1.605;stroke-linecap:square;stroke-miterlimit:2.9;stroke-dasharray:none;stroke-opacity:1"
           d="m 72.099613,185.25138 h -4.03742"
           id="path30"
           sodipodi:nodetypes="cc" /><path
           style="fill:#242775;fill-opacity:1;stroke:#242775;stroke-width:1.605;stroke-linecap:square;stroke-miterlimit:2.9;stroke-dasharray:none;stroke-opacity:1"
           d="m 94.389143,185.24462 c -8.79991,0 -8.79991,0 -8.79991,0"
           id="path31" /><path
           style="fill:#242775;fill-opacity:1;stroke:#242775;stroke-width:1.605;stroke-linecap:square;stroke-miterlimit:2.9;stroke-dasharray:none;stroke-opacity:1"
           d="m 85.589233,194.04454 c 0,-8.79992 0,-8.79992 0,-8.79992"
           id="path32" /><path
           style="fill:#242775;fill-opacity:1;stroke:#242775;stroke-width:1.605;stroke-linecap:square;stroke-miterlimit:2.9;stroke-dasharray:none;stroke-opacity:1"
           d="m 79.964313,194.04454 5.45955,-5e-5"
           id="path33"
           sodipodi:nodetypes="cc" /><path
           style="fill:#242775;fill-opacity:1;stroke:#242775;stroke-width:1.605;stroke-linecap:square;stroke-miterlimit:2.9;stroke-dasharray:none;stroke-opacity:1"
           d="m 94.389143,185.24462 c 0,-8.79992 0,-8.79992 0,-8.79992"
           id="path34" /><path
           style="fill:#242775;fill-opacity:1;stroke:#242775;stroke-width:1.605;stroke-linecap:square;stroke-miterlimit:2.9;stroke-dasharray:none;stroke-opacity:1"
           d="m 92.851295,176.4447 h 1.537848"
           id="path35"
           sodipodi:nodetypes="cc" /></g><path
         style="fill:#000000;fill-opacity:0;stroke:#242775;stroke-width:1.605;stroke-linecap:square;stroke-miterlimit:2.9;stroke-dasharray:none;stroke-opacity:1"
         d="m 64.865668,153.12416 c -5.14849,0 -6.50785,-8.79316 1.25014,-13.72903 7.75799,-4.93587 7.37242,-12.55341 2.92406,-12.66397"
         id="path36"
         sodipodi:nodetypes="czc" /><path
         style="fill:#242775;fill-opacity:1;stroke:#ff000f;stroke-width:1.36244;stroke-linecap:square;stroke-miterlimit:2.9;stroke-dasharray:none;stroke-opacity:1"
         d="m 79.966128,145.80796 c -7.470013,0 -7.470013,0 -7.470013,0"
         id="path43" /><path
         style="fill:#242775;fill-opacity:1;stroke:#ff000f;stroke-width:1.36244;stroke-linecap:square;stroke-miterlimit:2.9;stroke-dasharray:none;stroke-opacity:1"
         d="m 72.496115,154.16086 c 0,-7.47002 0,-7.47002 0,-7.47002"
         id="path44" /><path
         style="fill:#242775;fill-opacity:1;stroke:#ff000f;stroke-width:1.36244;stroke-linecap:square;stroke-miterlimit:2.9;stroke-dasharray:none;stroke-opacity:1"
         d="m 67.787,154.60868 4.684307,-2e-5"
         id="path45"
         sodipodi:nodetypes="cc" /><path
         style="fill:#242775;fill-opacity:1;stroke:#ff000f;stroke-width:1.36244;stroke-linecap:square;stroke-miterlimit:2.9;stroke-dasharray:none;stroke-opacity:1"
         d="m 81.287227,145.80796 c 0,-7.47002 0,-7.47002 0,-7.47002"
         id="path46" /><g
         id="g69"
         transform="translate(-0.61995723,-0.50841612)"
         style="fill:#ff000f;fill-opacity:1"><path
           style="fill:#ff000f;fill-opacity:1;stroke:none;stroke-width:0.0190207;stroke-linecap:round;stroke-miterlimit:2.9;stroke-opacity:1"
           d="m 75.239123,131.88531 c 0.05071,0.21195 0.191411,0.30651 0.402386,0.37744 0.211057,0.0701 0.450647,-0.0114 0.584259,-0.18668 0.133531,-0.17527 0.127417,-0.46223 -0.0024,-0.63831 -0.129944,-0.17609 -0.389913,-0.26902 -0.601052,-0.19728 -0.288338,0.0986 -0.452358,0.35543 -0.383147,0.64483 z"
           id="path67" /><path
           style="fill:#ff000f;fill-opacity:1;stroke:none;stroke-width:0.0207148;stroke-linecap:round;stroke-miterlimit:2.9;stroke-opacity:1"
           d="m 75.222388,134.07714 c -0.05345,0.23083 0.04634,0.4439 0.23536,0.59572 0.188926,0.15182 0.465392,0.16425 0.670654,0.0391 0.205174,-0.12518 0.322188,-0.40218 0.265279,-0.6339 -0.057,-0.23172 -0.256933,-0.42526 -0.498951,-0.44745 -0.330445,-0.0293 -0.599453,0.12962 -0.672342,0.44657 z"
           id="path66" /><path
           style="fill:#ff000f;fill-opacity:1;stroke:none;stroke-width:0.0225141;stroke-linecap:round;stroke-miterlimit:2.9;stroke-opacity:1"
           d="m 74.462421,136.23952 c -0.117336,0.23062 -0.07903,0.47957 0.08192,0.68799 0.160951,0.20843 0.431132,0.30203 0.684523,0.23834 0.253391,-0.0637 0.445509,-0.31457 0.463842,-0.57317 0.01833,-0.2586 -0.134318,-0.52782 -0.376227,-0.63396 -0.330296,-0.14474 -0.693882,-0.0338 -0.85406,0.2808 z"
           id="path65" /><path
           style="fill:#ff000f;fill-opacity:1;stroke:none;stroke-width:0.0233323;stroke-linecap:round;stroke-miterlimit:2.9;stroke-opacity:1"
           d="m 73.2166,138.15 c -0.1703,0.207 -0.1821,0.476 -0.0646,0.722 0.1175,0.246 0.3705,0.401 0.6411,0.392 0.2706,-0.01 0.5464,-0.246 0.6093,-0.507 0.0628,-0.262 -0.0397,-0.538 -0.2598,-0.701 -0.3005,-0.222 -0.6935,-0.188 -0.926,0.094 z"
           id="path64" /><path
           style="fill:#ff000f;fill-opacity:1;stroke:none;stroke-width:0.0233323;stroke-linecap:round;stroke-miterlimit:2.9;stroke-opacity:1"
           d="m 71.6035,139.816 c -0.1994,0.178 -0.2598,0.435 -0.1798,0.696 0.08,0.261 0.3076,0.451 0.5766,0.482 0.269,0.031 0.5465,-0.135 0.6608,-0.378 0.1144,-0.243 0.0758,-0.547 -0.1167,-0.742 -0.2628,-0.266 -0.6686,-0.302 -0.9409,-0.058 z"
           id="path63" /><path
           style="fill:#ff000f;fill-opacity:1;stroke:none;stroke-width:0.0233323;stroke-linecap:round;stroke-miterlimit:2.9;stroke-opacity:1"
           d="m 69.7471,141.217 c -0.2226,0.149 -0.3347,0.426 -0.2763,0.692 0.0584,0.267 0.2697,0.475 0.5352,0.528 0.2656,0.052 0.5278,-0.054 0.6753,-0.278 0.1474,-0.225 0.1534,-0.529 -0.009,-0.749 -0.2218,-0.301 -0.6212,-0.396 -0.9252,-0.193 z"
           id="path62" /><path
           style="fill:#ff000f;fill-opacity:1;stroke:none;stroke-width:0.0233323;stroke-linecap:round;stroke-miterlimit:2.9;stroke-opacity:1"
           d="m 67.721,142.723 c -0.1974,0.181 -0.2638,0.465 -0.1685,0.721 0.0954,0.256 0.3339,0.432 0.6042,0.447 0.2703,0.014 0.4719,-0.11 0.6006,-0.346 0.1287,-0.236 0.1017,-0.53 -0.0684,-0.744 -0.2322,-0.293 -0.6985,-0.325 -0.9679,-0.078 z"
           id="path61" /><path
           style="fill:#ff000f;fill-opacity:1;stroke:none;stroke-width:0.0233323;stroke-linecap:round;stroke-miterlimit:2.9;stroke-opacity:1"
           d="m 65.9926,144.556 c -0.1686,0.208 -0.1926,0.547 -0.043,0.775 0.1496,0.229 0.4211,0.348 0.688,0.302 0.2668,-0.045 0.4515,-0.196 0.5259,-0.454 0.0743,-0.258 -0.0158,-0.539 -0.2284,-0.711 -0.2903,-0.236 -0.7123,-0.196 -0.9425,0.088 z"
           id="path60" /><path
           style="fill:#ff000f;fill-opacity:1;stroke:none;stroke-width:0.0233323;stroke-linecap:round;stroke-miterlimit:2.9;stroke-opacity:1"
           d="m 64.6608,146.757 c -0.1168,0.241 -0.0625,0.579 0.1357,0.767 0.1983,0.187 0.49,0.24 0.7391,0.134 0.2491,-0.106 0.3936,-0.293 0.4072,-0.561 0.0135,-0.268 -0.1473,-0.502 -0.3836,-0.64 -0.3226,-0.188 -0.7391,-0.029 -0.8984,0.3 z"
           id="path59" /><path
           style="fill:#ff000f;fill-opacity:1;stroke:none;stroke-width:0.0233323;stroke-linecap:round;stroke-miterlimit:2.9;stroke-opacity:1"
           d="m 63.8959,149.277 c -0.0343,0.265 0.089,0.569 0.3372,0.682 0.2482,0.113 0.5323,0.093 0.7485,-0.07 0.2161,-0.163 0.2916,-0.38 0.241,-0.644 -0.0505,-0.263 -0.2579,-0.473 -0.5255,-0.53 -0.3654,-0.079 -0.7545,0.199 -0.8012,0.562 z"
           id="path58" /><path
           style="fill:#ff000f;fill-opacity:1;stroke:none;stroke-width:0.0171774;stroke-linecap:round;stroke-miterlimit:2.9;stroke-opacity:1"
           d="m 63.896334,151.66943 c 0.02672,0.19583 0.208273,0.38504 0.406754,0.41522 0.198481,0.0309 0.397403,-0.0589 0.504079,-0.22675 0.10675,-0.16859 0.114407,-0.33276 0.01333,-0.50283 -0.101081,-0.17006 -0.288077,-0.24515 -0.489356,-0.23632 -0.274825,0.0125 -0.471318,0.28418 -0.434803,0.55068 z"
           id="ellipse7267" /></g></g></g></svg>
